<?xml version="1.0" encoding="UTF-8" standalone="no"?>
<svg
   xmlns:dc="http://purl.org/dc/elements/1.1/"
   xmlns:cc="http://creativecommons.org/ns#"
   xmlns:rdf="http://www.w3.org/1999/02/22-rdf-syntax-ns#"
   xmlns:svg="http://www.w3.org/2000/svg"
   xmlns="http://www.w3.org/2000/svg"
   xmlns:xlink="http://www.w3.org/1999/xlink"
   xmlns:sodipodi="http://sodipodi.sourceforge.net/DTD/sodipodi-0.dtd"
   xmlns:inkscape="http://www.inkscape.org/namespaces/inkscape"
   version="1.1"
   id="svg2"
   xml:space="preserve"
   width="1658.824"
   height="1658.824"
   viewBox="0 0 1658.8239 1658.824"
   sodipodi:docname="Logo Alone Inv.svg"
   inkscape:version="1.0 (4035a4fb49, 2020-05-01)"><metadata
     id="metadata8"><rdf:RDF><cc:Work
         rdf:about=""><dc:format>image/svg+xml</dc:format><dc:type
           rdf:resource="http://purl.org/dc/dcmitype/StillImage" /><dc:title /></cc:Work></rdf:RDF></metadata><defs
     id="defs6"><linearGradient
       id="linearGradient905"
       spreadMethod="pad"
       gradientTransform="matrix(66.721802,-1075.889,-1075.889,-66.721802,964.97015,1564.9357)"
       gradientUnits="userSpaceOnUse"
       y2="0"
       x2="1"
       y1="0"
       x1="0"><stop
         id="stop899"
         offset="0"
         style="stop-opacity:1;stop-color:#2f63c9" /><stop
         id="stop901"
         offset="0.17922453"
         style="stop-opacity:1;stop-color:#2f63c9" /><stop
         id="stop903"
         offset="1"
         style="stop-opacity:1;stop-color:#ffffff" /></linearGradient><linearGradient
       id="linearGradient914"
       spreadMethod="pad"
       gradientTransform="matrix(33.360901,621.34674,621.34674,-33.360901,977.70752,548.93188)"
       gradientUnits="userSpaceOnUse"
       y2="0"
       x2="1"
       y1="0"
       x1="0"><stop
         id="stop908"
         offset="0"
         style="stop-opacity:1;stop-color:#c9ad4f" /><stop
         id="stop910"
         offset="0.17922453"
         style="stop-opacity:1;stop-color:#4c9ad4" /><stop
         id="stop912"
         offset="1"
         style="stop-opacity:1;stop-color:#ffffff" /></linearGradient><linearGradient
       id="linearGradient906"
       spreadMethod="pad"
       gradientTransform="matrix(33.360901,621.34674,621.34674,-33.360901,977.70752,548.93188)"
       gradientUnits="userSpaceOnUse"
       y2="0"
       x2="1"
       y1="0"
       x1="0"><stop
         id="stop900"
         offset="0"
         style="stop-opacity:1;stop-color:#c9ad4f" /><stop
         id="stop902"
         offset="0.17922453"
         style="stop-opacity:1;stop-color:#4c9ad4" /><stop
         id="stop904"
         offset="1"
         style="stop-opacity:1;stop-color:#ffffff" /></linearGradient><linearGradient
       id="linearGradient898"
       spreadMethod="pad"
       gradientTransform="matrix(33.360901,621.34674,621.34674,-33.360901,977.70752,548.93188)"
       gradientUnits="userSpaceOnUse"
       y2="0"
       x2="1"
       y1="0"
       x1="0"><stop
         id="stop892"
         offset="0"
         style="stop-opacity:1;stop-color:#49ad4f" /><stop
         id="stop894"
         offset="0.17922453"
         style="stop-opacity:1;stop-color:#4c9ad4" /><stop
         id="stop896"
         offset="1"
         style="stop-opacity:1;stop-color:#ffffff" /></linearGradient><linearGradient
       id="linearGradient890"
       spreadMethod="pad"
       gradientTransform="matrix(33.360901,621.34674,621.34674,-33.360901,977.70752,548.93188)"
       gradientUnits="userSpaceOnUse"
       y2="0"
       x2="1"
       y1="0"
       x1="0"><stop
         id="stop884"
         offset="0"
         style="stop-opacity:1;stop-color:#333333" /><stop
         id="stop886"
         offset="0.17922453"
         style="stop-opacity:1;stop-color:#4c9ad4" /><stop
         id="stop888"
         offset="1"
         style="stop-opacity:1;stop-color:#ffffff" /></linearGradient><linearGradient
       id="linearGradient882"
       spreadMethod="pad"
       gradientTransform="matrix(33.360901,621.34674,621.34674,-33.360901,977.70752,548.93188)"
       gradientUnits="userSpaceOnUse"
       y2="0"
       x2="1"
       y1="0"
       x1="0"><stop
         id="stop876"
         offset="0"
         style="stop-opacity:1;stop-color:#3e64ae" /><stop
         id="stop878"
         offset="0.17922453"
         style="stop-opacity:1;stop-color:#4c9ad4" /><stop
         id="stop880"
         offset="1"
         style="stop-opacity:1;stop-color:#ffffff" /></linearGradient><linearGradient
       id="linearGradient874"
       spreadMethod="pad"
       gradientTransform="matrix(33.360901,621.34674,621.34674,-33.360901,977.70752,548.93188)"
       gradientUnits="userSpaceOnUse"
       y2="0"
       x2="1"
       y1="0"
       x1="0"><stop
         id="stop868"
         offset="0"
         style="stop-opacity:1;stop-color:#3e64ae" /><stop
         id="stop870"
         offset="0.17922453"
         style="stop-opacity:1;stop-color:#4c9ad4" /><stop
         id="stop872"
         offset="1"
         style="stop-opacity:1;stop-color:#ffffff" /></linearGradient><linearGradient
       id="linearGradient866"
       spreadMethod="pad"
       gradientTransform="matrix(33.360901,621.34674,621.34674,-33.360901,977.70752,548.93188)"
       gradientUnits="userSpaceOnUse"
       y2="0"
       x2="1"
       y1="0"
       x1="0"><stop
         id="stop860"
         offset="0"
         style="stop-opacity:1;stop-color:#4c9ad4" /><stop
         id="stop862"
         offset="0.17922453"
         style="stop-opacity:1;stop-color:#3e64ae" /><stop
         id="stop864"
         offset="1"
         style="stop-opacity:1;stop-color:#ffffff" /></linearGradient><linearGradient
       x1="0"
       y1="0"
       x2="1"
       y2="0"
       gradientUnits="userSpaceOnUse"
       gradientTransform="matrix(66.721802,-1075.889,-1075.889,-66.721802,964.97015,1564.9357)"
       spreadMethod="pad"
       id="linearGradient30"><stop
         style="stop-opacity:1;stop-color:#2f63c9"
         offset="0"
         id="stop24" /><stop
         style="stop-opacity:1;stop-color:#2f63c9"
         offset="0.17922453"
         id="stop26" /><stop
         style="stop-opacity:1;stop-color:#ffffff"
         offset="1"
         id="stop28" /></linearGradient><linearGradient
       xlink:href="#linearGradient914"
       x1="0"
       y1="0"
       x2="1"
       y2="0"
       gradientUnits="userSpaceOnUse"
       gradientTransform="matrix(33.360901,621.34674,621.34674,-33.360901,977.70752,548.93188)"
       spreadMethod="pad"
       id="linearGradient52"><stop
         style="stop-opacity:1;stop-color:#4c9ad4"
         offset="0"
         id="stop46" /><stop
         style="stop-opacity:1;stop-color:#4c9ad4"
         offset="0.17922453"
         id="stop48" /><stop
         style="stop-opacity:1;stop-color:#ffffff"
         offset="1"
         id="stop50" /></linearGradient><clipPath
       clipPathUnits="userSpaceOnUse"
       id="clipPath62"><path
         d="M 0,2000 H 2000 V 0 H 0 Z"
         id="path60" /></clipPath><linearGradient
       spreadMethod="pad"
       y2="0"
       x2="1"
       y1="0"
       x1="0"
       gradientTransform="matrix(33.360901,621.34674,621.34674,-33.360901,977.70752,548.93188)"
       gradientUnits="userSpaceOnUse"
       id="linearGradient916"
       xlink:href="#linearGradient30"
       inkscape:collect="always" /><linearGradient
       inkscape:collect="always"
       xlink:href="#linearGradient905"
       id="linearGradient889"
       gradientUnits="userSpaceOnUse"
       gradientTransform="matrix(66.721802,-1075.889,-1075.889,-66.721802,964.97015,1564.9357)"
       x1="0"
       y1="0"
       x2="1"
       y2="0"
       spreadMethod="pad" /></defs><sodipodi:namedview
     inkscape:document-rotation="0"
     pagecolor="#ffffff"
     bordercolor="#666666"
     borderopacity="1"
     objecttolerance="10"
     gridtolerance="10"
     guidetolerance="10"
     inkscape:pageopacity="0"
     inkscape:pageshadow="2"
     inkscape:window-width="1920"
     inkscape:window-height="983"
     id="namedview4"
     showgrid="false"
     inkscape:zoom="0.29774999"
     inkscape:cx="919.0799"
     inkscape:cy="844.83178"
     inkscape:window-x="0"
     inkscape:window-y="0"
     inkscape:window-maximized="1"
     inkscape:current-layer="g10" /><g
     id="g10"
     inkscape:groupmode="layer"
     inkscape:label="Logo 2"
     transform="matrix(1.3333333,0,0,-1.3333333,-503.92105,2164.5225)"><g
       id="g12"><g
         id="g14"><g
           id="g20"><g
             id="g22"><path
               d="m 494.201,1000.005 c 0,-11.891 0.415,-23.684 1.222,-35.368 v 0 c 283.54398,-170.9106 518.9292,-306.47081 1009.41,3.752 v 0 c 0.644,10.463 0.97,21.001 0.97,31.616 v 0 c 0,279.349 -226.458,505.796 -505.806,505.796 v 0 c -279.348,0 -505.796,-226.447 -505.796,-505.796"
               style="fill:url(#linearGradient889);fill-opacity:1;stroke:none"
               id="path32"
               sodipodi:nodetypes="csccsssssc" /></g></g></g></g><g
       id="g34"
       style="stroke-width:0.99975;stroke-miterlimit:4;stroke-dasharray:none"
       transform="translate(4.9885576e-5)"><g
         id="g36"
         style="stroke-width:0.99975;stroke-miterlimit:4;stroke-dasharray:none"><g
           id="g42"
           style="stroke-width:0.99975;stroke-miterlimit:4;stroke-dasharray:none"><g
             id="g44"
             style="stroke-width:0.99975;stroke-miterlimit:4;stroke-dasharray:none"><path
               d="m 1020.779,1193.604 -0.065,0.044 -54.722,-51.481 41.337,61.595 -62.829,47.412 -61.18,-57.57 0.077,-0.032 -92.164,-86.72 37.038,55.191 -78.189,56.065 L 495.423,964.637 C 513.576,701.795 732.541,494.198 999.997,494.198 v 0 c 268.734,0 488.516,209.571 504.836,474.191 v 0 l -319.004,381.003 z"
               style="fill:url(#linearGradient916);fill-opacity:1;stroke:none;stroke-width:0.99975;stroke-miterlimit:4;stroke-dasharray:none"
               id="path54" /></g></g></g></g><g
       transform="matrix(0.9999997,0,0,0.99786188,1.1206429e-4,3.4710009)"
       id="g56"><g
         id="g58"
         clip-path="url(#clipPath62)"><g
           id="g64"
           transform="translate(430.9548,1048.5469)"><path
             d="M 0,0 C 24.783,293.037 274.738,522.583 569.046,522.583 863.353,522.583 1113.307,293.037 1138.09,0 l 0.589,-6.979 h 52.425 l -0.645,8.219 c -5.782,73.639 -24.266,144.697 -54.938,211.195 -30.759,66.692 -73.041,127.193 -125.672,179.822 C 892.109,510.001 735.562,574.845 569.046,574.845 402.53,574.845 245.982,510.001 128.242,392.257 75.611,339.628 33.328,279.127 2.569,212.435 -28.103,145.937 -46.587,74.879 -52.369,1.24 l -0.645,-8.219 h 52.425 z"
             style="fill:#4c9bd3;fill-opacity:1;fill-rule:nonzero;stroke:none"
             id="path66" /></g><g
           id="g68"
           transform="translate(1569.0452,951.4531)"><path
             d="m 0,0 c -24.785,-293.037 -274.739,-522.583 -569.044,-522.583 -294.309,0 -544.263,229.546 -569.046,522.583 l -0.589,6.979 h -52.425 l 0.645,-8.219 c 5.782,-73.641 24.266,-144.697 54.938,-211.197 30.761,-66.692 73.042,-127.193 125.672,-179.82 117.741,-117.744 274.289,-182.588 440.805,-182.588 166.516,0 323.063,64.844 440.803,182.588 52.631,52.629 94.911,113.128 125.672,179.82 30.672,66.5 49.156,137.558 54.938,211.197 l 0.645,8.219 H 0.589 Z"
             style="fill:#4c9bd3;fill-opacity:1;fill-rule:nonzero;stroke:none"
             id="path70" /></g><g
           id="g72"
           transform="translate(1154.6565,756.3359)"><path
             d="m 0,0 21.093,21.086 c 18.74,18.747 28.701,43.347 29.871,73.812 -1.17,41.009 -14.646,72.644 -40.421,94.905 -21.68,17.278 -52.573,25.923 -92.7,25.923 h -46.715 L -148.5,160.323 h 70.793 v -0.621 c 35.238,-2.061 57.061,-16.609 65.407,-43.711 5.853,-15.233 5.272,-31.054 -1.757,-47.449 C -24.6,41.59 -47.449,25.77 -82.598,21.086 L 17.509,-123.019 h 69.416 z"
             style="fill:#ffffff;fill-opacity:1;fill-rule:nonzero;stroke:none"
             id="path74" /></g><g
           id="g76"
           transform="translate(932.2346,972.062)"><path
             d="m 0,0 v -0.195 c -44.668,-1.005 -84.195,-16.517 -118.457,-46.813 -36.906,-32.517 -55.359,-71.768 -55.359,-117.748 0,-48.043 17.501,-89.045 52.503,-123.025 32.601,-31.65 70.992,-48.536 115.155,-50.707 v -0.257 h 129.993 l -39.257,52.703 v 0.077 H 10.681 v 0.196 c -2.296,-0.118 -4.682,-0.163 -7.081,-0.196 H 0.216 c -32.242,0.308 -59.66,12.119 -82.207,35.531 -22.843,23.725 -34.268,52.133 -34.268,85.237 0,30.753 11.93,57.481 35.808,80.183 23.48,22.325 50.312,33.615 80.451,33.98 v -0.038 h 10.082 c 0.194,-0.005 0.405,-0.003 0.599,-0.008 v 0.008 h 47.34 L 77.649,0 Z"
             style="fill:#ffffff;fill-opacity:1;fill-rule:nonzero;stroke:none"
             id="path78" /></g></g></g></g></svg>
