<?xml version="1.0" standalone="no"?>
<!DOCTYPE svg PUBLIC "-//W3C//DTD SVG 20010904//EN"
 "http://www.w3.org/TR/2001/REC-SVG-20010904/DTD/svg10.dtd">
<svg version="1.0" xmlns="http://www.w3.org/2000/svg"
 width="700.000000pt" height="700.000000pt" viewBox="0 0 700.000000 700.000000"
 preserveAspectRatio="xMidYMid meet">
<metadata>
Created by potrace 1.11, written by Peter Selinger 2001-2013
</metadata>
<g transform="translate(0.000000,700.000000) scale(0.100000,-0.100000)"
fill="#000000" stroke="none">
<path d="M3218 6995 c-2 -2 -32 -6 -68 -9 -36 -4 -78 -9 -95 -11 -16 -3 -48
-7 -70 -10 -22 -3 -62 -10 -90 -15 -27 -5 -61 -12 -75 -14 -257 -47 -533 -137
-803 -261 -135 -62 -369 -191 -375 -207 -2 -4 -8 -8 -13 -8 -16 0 -187 -122
-323 -230 -116 -92 -378 -343 -461 -440 -132 -155 -214 -265 -311 -420 -162
-255 -275 -494 -368 -775 -56 -166 -114 -409 -131 -540 -3 -27 -8 -59 -10 -70
-7 -35 -14 -87 -20 -172 l-7 -83 151 0 c150 0 151 0 152 23 3 62 18 182 40
307 91 524 342 1061 689 1475 76 90 279 296 385 389 244 215 596 431 892 546
43 17 87 35 98 40 69 31 325 102 465 128 136 27 176 32 355 49 151 15 558 8
675 -11 14 -3 47 -7 73 -11 26 -3 71 -10 100 -16 29 -5 66 -12 82 -15 17 -3
48 -10 70 -15 22 -6 48 -13 57 -14 78 -15 314 -93 433 -143 403 -169 750 -404
1065 -721 416 -419 701 -926 840 -1496 16 -66 31 -133 33 -150 3 -16 10 -57
15 -90 15 -84 26 -176 30 -247 l2 -28 150 0 150 0 0 27 c0 59 -33 296 -61 438
-87 439 -257 848 -517 1243 -76 116 -192 270 -265 351 -70 78 -288 293 -367
362 -438 381 -1003 663 -1555 773 -16 4 -41 9 -55 12 -27 5 -57 11 -105 19
-16 3 -39 7 -50 9 -39 7 -111 15 -198 21 -85 7 -604 15 -609 10z"/>
<path d="M3298 6335 c-2 -2 -43 -6 -93 -10 -49 -4 -92 -8 -95 -10 -3 -1 -27
-6 -55 -9 -27 -4 -57 -9 -65 -11 -8 -2 -31 -7 -50 -10 -19 -3 -71 -15 -115
-26 -44 -12 -88 -22 -97 -24 -9 -2 -70 -22 -136 -44 -728 -246 -1325 -774
-1657 -1466 -126 -264 -228 -604 -251 -836 -3 -35 -8 -67 -10 -70 -6 -10 -18
-232 -18 -334 0 -100 12 -302 19 -340 2 -11 7 -42 10 -70 9 -73 42 -237 69
-338 151 -561 506 -1098 971 -1469 348 -277 777 -476 1220 -566 137 -28 154
-31 335 -47 68 -6 390 -6 445 0 22 2 65 7 95 10 505 52 1036 273 1455 604 125
99 283 250 375 360 25 29 50 58 55 64 6 7 31 39 55 72 25 33 47 62 50 65 29
29 169 259 228 375 107 211 217 526 247 705 3 19 10 58 15 85 5 28 12 69 15
92 3 23 8 57 10 75 22 163 22 556 -1 670 -2 13 -7 48 -10 78 -3 30 -7 57 -9
60 -2 3 -6 26 -10 50 -12 81 -56 253 -95 371 -105 313 -254 588 -471 869 -87
113 -323 353 -429 436 -41 32 -81 65 -89 72 -32 31 -275 185 -371 235 -312
165 -678 283 -975 312 -33 4 -69 9 -80 12 -19 6 -481 13 -487 8z m1448 -1117
c108 -128 206 -244 218 -258 11 -14 39 -47 61 -75 22 -27 43 -52 46 -55 3 -3
66 -77 138 -165 73 -88 142 -171 154 -185 18 -21 60 -71 138 -165 25 -30 98
-116 123 -145 11 -14 53 -63 91 -110 39 -47 78 -94 87 -105 57 -68 239 -287
268 -324 19 -24 40 -48 45 -55 52 -59 75 -88 75 -96 0 -6 -20 -8 -47 -5 -48 4
-140 10 -323 19 -268 14 -340 18 -395 21 -33 2 -114 7 -180 10 -66 3 -149 8
-183 10 -35 3 -123 7 -195 10 -73 3 -166 8 -207 10 -86 6 -212 13 -350 20 -52
3 -138 7 -190 10 -52 3 -144 8 -205 10 -60 3 -141 8 -180 10 -38 2 -123 7
-188 10 -65 3 -148 7 -185 10 -37 2 -123 7 -192 10 -69 4 -150 8 -180 10 -31
2 -114 6 -185 9 -72 4 -161 9 -200 11 -38 3 -119 7 -180 10 -206 11 -280 15
-370 20 -49 3 -139 8 -200 10 -60 3 -148 8 -195 11 -101 6 -195 10 -385 20
-77 3 -142 8 -145 11 -2 2 214 222 480 488 l485 484 195 -140 c107 -78 204
-147 214 -155 25 -17 19 -30 -75 -171 -110 -166 -109 -167 41 -24 15 14 84 80
155 146 70 66 145 136 165 155 20 19 92 87 160 150 68 63 138 129 155 145 17
17 44 41 58 54 l26 24 176 -132 175 -131 -78 -118 c-43 -64 -89 -135 -102
-157 -21 -35 -22 -38 -5 -25 11 8 36 31 56 50 39 37 250 236 309 290 19 18 94
88 165 155 72 67 146 137 165 155 19 18 98 92 174 164 76 72 149 140 161 151
11 11 51 48 87 83 37 34 69 62 72 62 3 0 94 -105 202 -232z m-891 -1872 c247
-9 334 -23 429 -68 22 -10 44 -18 49 -18 20 0 115 -76 157 -126 52 -64 88
-126 119 -209 32 -85 33 -87 38 -220 9 -215 -32 -314 -210 -503 l-68 -72 31
-43 c17 -23 52 -71 76 -107 25 -36 63 -90 85 -120 22 -30 48 -66 57 -80 9 -14
62 -91 118 -170 55 -80 104 -150 107 -157 6 -9 -40 -12 -182 -13 l-189 -1 -90
128 c-385 553 -462 665 -462 673 0 4 28 15 63 25 98 28 163 63 215 116 119
120 152 294 85 439 -38 81 -78 122 -157 159 -80 38 -154 48 -366 50 -150 2
-220 7 -220 15 0 1 23 67 50 147 48 137 68 172 93 164 7 -2 84 -6 172 -9z
m-317 -4 c11 -7 6 -29 -23 -108 -20 -54 -44 -115 -52 -135 l-16 -37 -91 -2
c-296 -6 -373 -14 -455 -47 -198 -78 -363 -256 -417 -448 -36 -129 -13 -327
52 -458 72 -142 231 -284 373 -333 82 -28 136 -32 438 -33 l242 -1 104 -137
c57 -76 106 -143 110 -149 7 -12 -759 -12 -823 1 -154 29 -317 98 -431 182
-57 42 -155 135 -199 188 -79 94 -155 251 -181 370 -7 33 -14 67 -16 75 -2 8
-5 62 -7 120 -9 277 104 517 334 711 119 100 289 186 430 216 127 27 597 45
628 25z"/>
<path d="M5 3184 c4 -48 8 -94 10 -103 1 -9 6 -41 10 -71 4 -30 9 -64 11 -75
2 -11 9 -47 14 -80 81 -493 350 -1087 679 -1505 137 -173 466 -502 606 -607
33 -24 69 -52 80 -61 11 -9 65 -46 120 -83 283 -189 558 -324 860 -422 121
-39 158 -50 210 -62 6 -2 37 -10 70 -18 33 -9 74 -18 90 -21 17 -3 41 -8 55
-11 14 -3 39 -7 55 -10 17 -3 41 -7 55 -10 14 -3 48 -7 75 -11 28 -3 59 -8 70
-10 91 -19 593 -26 750 -12 74 7 97 10 180 23 17 3 48 7 70 11 174 26 412 87
620 161 539 190 1026 525 1451 998 197 220 354 454 498 745 122 247 198 451
261 699 37 149 38 156 59 286 21 132 24 152 31 248 l7 87 -150 0 -150 0 -7
-77 c-6 -66 -16 -128 -61 -373 -24 -128 -100 -370 -168 -535 -263 -634 -731
-1173 -1333 -1534 -385 -231 -916 -407 -1317 -437 -116 -8 -561 -8 -651 0
-232 22 -624 118 -820 201 -327 138 -508 239 -740 410 -419 309 -748 700 -980
1163 -126 252 -221 529 -274 797 -24 122 -48 299 -50 368 -1 15 -15 17 -152
17 l-151 0 7 -86z"/>
</g>
</svg>
